<mxfile host="65bd71144e">
    <diagram id="MMHDFD" name="Level 0 + Level 1">
        <mxGraphModel dx="915" dy="445" grid="1" gridSize="10" guides="1" tooltips="1" connect="1" arrows="1" fold="1" page="1" pageScale="1" pageWidth="850" pageHeight="1100" math="0" shadow="0">
            <root>
                <mxCell id="0"/>
                <mxCell id="1" parent="0"/>
                <mxCell id="100" value="LEVEL 0 DFD - Metro Manila Hills Hardware Inventory Management System" style="text;html=1;align=center;fontSize=20;fontStyle=1" parent="1" vertex="1">
                    <mxGeometry x="200" y="40" width="450" height="40" as="geometry"/>
                </mxCell>
                <mxCell id="2" value="User (Admin/Staff)" style="shape=umlActor;verticalLabelPosition=bottom;verticalAlign=top;html=1;" parent="1" vertex="1">
                    <mxGeometry x="70" y="230" width="40" height="80" as="geometry"/>
                </mxCell>
                <mxCell id="3" value="0.0 Metro Manila Hills Hardware Inventory Management System" style="shape=process;whiteSpace=wrap;html=1;rounded=1;fillColor=#dae8fc;strokeColor=#6c8ebf;" parent="1" vertex="1">
                    <mxGeometry x="200" y="190" width="280" height="150" as="geometry"/>
                </mxCell>
                <mxCell id="4" value="D1: Product Data" style="shape=datastore;whiteSpace=wrap;html=1;fillColor=#fff2cc;strokeColor=#d6b656;" parent="1" vertex="1">
                    <mxGeometry x="650" y="150" width="150" height="50" as="geometry"/>
                </mxCell>
                <mxCell id="5" value="D2: Order Data" style="shape=datastore;whiteSpace=wrap;html=1;fillColor=#fff2cc;strokeColor=#d6b656;" parent="1" vertex="1">
                    <mxGeometry x="650" y="230" width="150" height="50" as="geometry"/>
                </mxCell>
                <mxCell id="6" value="D3: Report Data" style="shape=datastore;whiteSpace=wrap;html=1;fillColor=#fff2cc;strokeColor=#d6b656;" parent="1" vertex="1">
                    <mxGeometry x="650" y="310" width="150" height="50" as="geometry"/>
                </mxCell>
                <mxCell id="7" value="Input/Requests" style="edgeStyle=orthogonalEdgeStyle;endArrow=block;html=1;" parent="1" source="2" target="3" edge="1">
                    <mxGeometry relative="1" as="geometry"/>
                </mxCell>
                <mxCell id="8" value="Reports/Updates" style="edgeStyle=orthogonalEdgeStyle;endArrow=block;html=1;" parent="1" source="3" target="2" edge="1">
                    <mxGeometry relative="1" as="geometry"/>
                </mxCell>
                <mxCell id="9" value="Inventory Data" style="edgeStyle=orthogonalEdgeStyle;endArrow=block;html=1;" parent="1" source="3" target="4" edge="1">
                    <mxGeometry relative="1" as="geometry"/>
                </mxCell>
                <mxCell id="10" value="Order Data" style="edgeStyle=orthogonalEdgeStyle;endArrow=block;html=1;" parent="1" source="3" target="5" edge="1">
                    <mxGeometry relative="1" as="geometry"/>
                </mxCell>
                <mxCell id="11" value="Reports" style="edgeStyle=orthogonalEdgeStyle;endArrow=block;html=1;" parent="1" source="3" target="6" edge="1">
                    <mxGeometry relative="1" as="geometry"/>
                </mxCell>
                <mxCell id="200" value="LEVEL 1 DFD - Expanded Processes of Metro Manila Hills&lt;div&gt;Hardware Inventory Management System&lt;/div&gt;" style="text;html=1;align=center;fontSize=20;fontStyle=1" parent="1" vertex="1">
                    <mxGeometry x="150" y="450" width="550" height="60" as="geometry"/>
                </mxCell>
                <mxCell id="12" value="1.0 Manage Inventory" style="shape=process;whiteSpace=wrap;html=1;rounded=1;fillColor=#cce5ff;strokeColor=#6c8ebf;" parent="1" vertex="1">
                    <mxGeometry x="90" y="525" width="220" height="100" as="geometry"/>
                </mxCell>
                <mxCell id="13" value="2.0 Manage Orders" style="shape=process;whiteSpace=wrap;html=1;rounded=1;fillColor=#cce5ff;strokeColor=#6c8ebf;" parent="1" vertex="1">
                    <mxGeometry x="90" y="640" width="220" height="100" as="geometry"/>
                </mxCell>
                <mxCell id="14" value="3.0 Generate Reports" style="shape=process;whiteSpace=wrap;html=1;rounded=1;fillColor=#cce5ff;strokeColor=#6c8ebf;" parent="1" vertex="1">
                    <mxGeometry x="90" y="750" width="220" height="100" as="geometry"/>
                </mxCell>
                <mxCell id="15" value="4.0 View Dashboard" style="shape=process;whiteSpace=wrap;html=1;rounded=1;fillColor=#cce5ff;strokeColor=#6c8ebf;" parent="1" vertex="1">
                    <mxGeometry x="90" y="950" width="220" height="100" as="geometry"/>
                </mxCell>
                <mxCell id="16" value="D1: Product Data" style="shape=datastore;whiteSpace=wrap;html=1;fillColor=#fff2cc;strokeColor=#d6b656;" parent="1" vertex="1">
                    <mxGeometry x="700" y="550" width="150" height="50" as="geometry"/>
                </mxCell>
                <mxCell id="17" value="D2: Order Data" style="shape=datastore;whiteSpace=wrap;html=1;fillColor=#fff2cc;strokeColor=#d6b656;" parent="1" vertex="1">
                    <mxGeometry x="700" y="700" width="150" height="50" as="geometry"/>
                </mxCell>
                <mxCell id="18" value="D3: Report Data" style="shape=datastore;whiteSpace=wrap;html=1;fillColor=#fff2cc;strokeColor=#d6b656;" parent="1" vertex="1">
                    <mxGeometry x="700" y="850" width="150" height="50" as="geometry"/>
                </mxCell>
                <mxCell id="19" value="Update Stock" style="edgeStyle=orthogonalEdgeStyle;endArrow=block;html=1;" parent="1" source="12" target="16" edge="1">
                    <mxGeometry relative="1" as="geometry"/>
                </mxCell>
                <mxCell id="20" value="Read Product Info" style="edgeStyle=orthogonalEdgeStyle;endArrow=block;html=1;" parent="1" source="16" target="12" edge="1">
                    <mxGeometry relative="1" as="geometry">
                        <Array as="points">
                            <mxPoint x="775" y="610"/>
                        </Array>
                    </mxGeometry>
                </mxCell>
                <mxCell id="21" value="Save Order Data" style="edgeStyle=orthogonalEdgeStyle;endArrow=block;html=1;" parent="1" source="13" target="17" edge="1">
                    <mxGeometry relative="1" as="geometry"/>
                </mxCell>
                <mxCell id="22" value="Generate Report Data" style="edgeStyle=orthogonalEdgeStyle;endArrow=block;html=1;" parent="1" source="14" target="18" edge="1">
                    <mxGeometry relative="1" as="geometry"/>
                </mxCell>
                <mxCell id="23" value="Display Report Data" style="edgeStyle=orthogonalEdgeStyle;endArrow=block;html=1;" parent="1" source="18" target="15" edge="1">
                    <mxGeometry relative="1" as="geometry"/>
                </mxCell>
            </root>
        </mxGraphModel>
    </diagram>
</mxfile>